<svg width="357" height="269" viewBox="0 0 357 269" fill="none" xmlns="http://www.w3.org/2000/svg">
<path d="M173.527 186.244L176.323 187.798C180.672 190.283 181.605 192.147 180.051 197.118C177.565 204.885 175.08 212.651 172.595 220.418L165.76 241.233C165.449 242.165 165.449 243.097 165.449 244.029C166.071 243.408 166.692 243.097 167.002 242.476C179.43 228.806 191.856 214.826 203.973 200.846C209.876 194.011 211.739 194.011 219.196 198.982C220.127 199.603 221.059 200.535 221.992 201.467C224.477 203.642 225.409 207.059 224.167 210.166C221.681 217.933 219.196 225.7 216.71 233.466C216.399 234.398 216.089 235.33 215.778 236.884L233.487 220.418C238.147 216.069 243.117 211.409 247.778 207.059C249.331 205.506 250.263 203.953 251.505 202.399C252.126 200.846 253.369 199.914 254.923 199.914C255.544 199.914 256.476 200.225 257.098 200.535C259.583 202.089 262.068 203.642 264.243 205.506C266.418 207.059 267.039 209.855 266.107 212.341C263.621 219.797 261.136 227.564 258.961 235.02C258.651 235.641 258.651 236.573 258.029 238.126L282.262 212.651C286.3 208.302 290.34 203.953 294.688 199.603C296.863 196.807 299.97 195.254 303.388 195.254C306.183 195.254 308.98 196.186 310.843 198.361C312.397 199.603 314.261 200.846 315.814 202.089C317.989 203.642 319.231 205.817 319.231 208.613C319.231 210.166 318.611 212.03 317.678 213.273C314.261 219.486 310.533 225.7 307.736 232.534C306.183 236.573 304.941 240.612 304.32 244.651C304.009 245.893 304.009 246.825 304.32 248.068C304.32 248.068 304.32 248.068 304.32 248.379C304.32 252.107 307.116 254.903 310.843 254.903C312.086 254.903 313.329 254.592 314.261 253.971C319.853 251.175 324.513 246.825 327.62 241.233C332.28 233.777 335.076 225.078 335.697 216.069C336.008 214.205 335.076 212.651 333.522 211.719C331.347 210.477 329.174 208.613 326.688 207.37C325.134 206.438 324.824 204.574 326.377 203.953C330.416 201.467 334.765 199.293 339.425 197.429C342.843 196.186 346.882 197.739 348.435 200.846C350.299 203.642 351.542 206.438 351.852 209.855C352.785 230.049 346.882 247.447 331.037 260.495C323.581 267.329 313.018 269.815 303.077 267.641C294.378 265.466 288.475 257.699 288.165 249C287.854 239.369 290.028 229.738 295 221.35L296.553 218.244C296.553 217.933 296.863 217.312 296.863 217.001C295.62 218.244 294.688 218.865 294.067 219.797L253.369 263.291C249.641 267.329 247.778 267.641 243.428 264.534C241.563 263.291 240.01 262.048 238.147 260.806C235.972 259.563 235.04 256.767 235.972 254.281C238.457 247.757 240.943 241.233 243.738 234.709C244.36 233.777 244.36 232.534 244.36 231.292L234.108 240.923C226.03 248.689 217.952 256.145 209.876 263.912C206.458 267.019 205.216 267.019 201.176 264.534L195.895 261.116C192.788 258.941 192.167 257.699 193.41 253.971C196.828 243.097 200.555 232.224 204.283 221.35L207.39 211.719L206.458 211.098C206.147 211.719 205.526 212.651 205.216 213.273L162.654 262.359C157.993 267.641 156.439 267.951 150.537 264.223C141.838 258.32 141.528 257.699 144.634 247.757L163.274 189.662C163.585 188.419 164.207 187.176 164.828 185.623H82.8108C79.0827 185.934 75.6653 183.759 74.4226 180.342C73.4906 177.856 71.9373 175.682 71.0052 173.507C70.0732 171.332 70.6945 170.4 72.8693 170.089H261.447C265.486 169.468 269.214 171.953 270.146 175.682C270.767 177.546 272.009 179.41 272.942 181.274C274.495 184.691 273.874 185.312 270.456 185.623H173.527V186.244Z" fill="white"/>
<path d="M30.6178 236.263L39.3167 228.496C45.8407 222.904 52.3649 216.69 59.1996 211.409C63.2384 208.302 66.0344 203.953 67.8984 199.293C69.7625 194.633 71.6265 194.322 75.9759 196.807C84.0534 202.089 84.364 203.331 81.2573 212.341C77.8399 222.282 74.7332 232.534 71.6265 242.787C71.6265 243.408 71.3158 243.719 71.0051 245.272L81.2573 234.088L112.014 199.914C116.674 194.633 120.712 194.322 127.237 197.429C132.828 199.603 136.246 205.506 135.625 211.409C135.314 225.7 135.314 239.991 135.003 254.281C135.314 257.699 133.45 260.806 130.343 262.359C127.547 263.912 124.752 265.466 121.955 267.019C119.78 268.262 116.674 268.572 114.189 267.641C103.315 263.602 102.072 261.738 102.694 249.621C102.694 246.515 104.247 245.583 107.354 246.825C110.46 248.068 112.635 249 115.742 250.243V209.545C115.12 210.166 114.499 210.477 114.189 211.098L68.2091 262.98C63.8597 267.951 61.9957 268.262 56.7142 264.534C54.8503 263.291 53.2968 262.048 51.7435 260.806C49.2581 259.252 48.3261 256.145 49.2581 253.349C50.8115 248.379 52.3649 243.408 54.2289 238.748C54.5396 237.816 54.8503 236.573 54.8503 235.641L44.2874 245.272L23.1617 264.844C20.3657 267.641 19.4337 267.641 16.0163 265.466C14.1523 264.223 11.9776 262.67 10.1135 261.427C6.38548 258.942 5.76414 257.388 7.3175 253.039C11.0456 242.165 14.7736 230.981 18.5017 220.108C19.4337 217.622 21.2978 214.826 20.6763 212.652C20.055 210.477 16.9483 209.545 14.7736 207.991C14.1523 207.681 13.5309 207.059 12.9096 206.749C11.3562 205.506 11.0456 203.953 12.9096 203.021C16.9483 200.535 20.9871 198.05 25.3365 196.186C27.2004 195.875 29.0645 196.186 30.6178 196.807C33.1032 198.361 35.2779 199.914 37.4526 201.467C39.6274 202.399 40.87 204.263 40.87 206.749C40.87 207.681 40.5594 208.613 39.938 209.545C37.142 217.622 34.3459 225.389 31.5498 233.466C31.2392 234.399 30.9285 235.331 30.6178 236.263Z" fill="white"/>
<path d="M152.722 61.9415C152.722 78.8756 139.5 91.3541 123.274 91.3541C107.047 91.3541 93.8251 78.8756 93.8251 61.9415C93.8251 44.888 107.047 32.5289 123.274 32.5289C139.5 32.5289 152.722 44.888 152.722 61.9415ZM139.831 61.9415C139.831 51.3593 132.168 44.1189 123.274 44.1189C114.379 44.1189 106.716 51.3593 106.716 61.9415C106.716 72.4176 114.379 79.7641 123.274 79.7641C132.168 79.7641 139.831 72.4043 139.831 61.9415Z" fill="white"/>
<path d="M216.252 61.9415C216.252 78.8756 203.029 91.3541 186.803 91.3541C170.577 91.3541 157.354 78.8756 157.354 61.9415C157.354 44.9013 170.577 32.5289 186.803 32.5289C203.029 32.5289 216.252 44.888 216.252 61.9415ZM203.36 61.9415C203.36 51.3593 195.697 44.1189 186.803 44.1189C177.909 44.1189 170.246 51.3593 170.246 61.9415C170.246 72.4176 177.909 79.7641 186.803 79.7641C195.697 79.7641 203.36 72.4043 203.36 61.9415Z" fill="white"/>
<path d="M277.134 34.3058V87.1106C277.134 108.832 264.349 117.703 249.234 117.703C235.006 117.703 226.443 108.169 223.213 100.371L234.437 95.6904C236.435 100.478 241.332 106.127 249.221 106.127C258.896 106.127 264.891 100.146 264.891 88.8876V84.6573H264.441C261.556 88.2245 255.997 91.3408 248.982 91.3408C234.304 91.3408 220.857 78.5308 220.857 62.0476C220.857 45.445 234.304 32.5289 248.982 32.5289C255.984 32.5289 261.543 35.6452 264.441 39.1063H264.891V34.3191H277.134V34.3058ZM265.804 62.0476C265.804 51.6908 258.909 44.1189 250.134 44.1189C241.24 44.1189 233.788 51.6908 233.788 62.0476C233.788 72.2982 241.24 79.7641 250.134 79.7641C258.909 79.7641 265.804 72.2982 265.804 62.0476Z" fill="white"/>
<path d="M297.318 3.35498V89.5506H284.744V3.35498H297.318Z" fill="white"/>
<path d="M346.315 71.6219L356.321 78.3054C353.091 83.0926 345.309 91.3408 331.862 91.3408C315.185 91.3408 302.731 78.4248 302.731 61.9282C302.731 44.4371 315.291 32.5156 330.419 32.5156C345.653 32.5156 353.104 44.6626 355.54 51.2267L356.876 54.5685L317.634 70.8528C320.638 76.7539 325.31 79.7641 331.862 79.7641C338.426 79.7641 342.979 76.5285 346.315 71.6219ZM315.516 61.0398L341.748 50.1261C340.306 46.4528 335.965 43.8935 330.856 43.8935C324.304 43.8935 315.185 49.6885 315.516 61.0398Z" fill="white"/>
<path d="M46.2309 54.29V41.8115H88.2C88.6103 43.9863 88.8221 46.5589 88.8221 49.3437C88.8221 58.7059 86.2676 70.2826 78.0353 78.5309C70.0279 86.8852 59.7971 91.3409 46.2441 91.3409C21.1235 91.3409 0 70.8396 0 45.6704C0 20.5013 21.1235 0 46.2441 0C60.1412 0 70.0412 5.46348 77.4794 12.5846L68.6912 21.3898C63.3573 16.3772 56.1309 12.4785 46.2309 12.4785C27.8868 12.4785 13.5397 27.2909 13.5397 45.6704C13.5397 64.05 27.8868 78.8624 46.2309 78.8624C58.1294 78.8624 64.9059 74.0752 69.2471 69.7257C72.7676 66.1983 75.0838 61.1591 75.9971 54.2767L46.2309 54.29Z" fill="white"/>
</svg>
